<?xml version="1.0" standalone="no"?>
<!DOCTYPE svg PUBLIC "-//W3C//DTD SVG 20010904//EN"
 "http://www.w3.org/TR/2001/REC-SVG-20010904/DTD/svg10.dtd">
<svg version="1.0" xmlns="http://www.w3.org/2000/svg"
 width="230.000000pt" height="70.000000pt" viewBox="0 0 230.000000 70.000000"
 preserveAspectRatio="xMidYMid meet">

<g transform="translate(0.000000,70.000000) scale(0.100000,-0.100000)"
fill="#000000" stroke="none">
<path d="M20 645 c0 -19 6 -26 28 -31 37 -8 82 -25 82 -32 0 -3 -12 -21 -26
-40 -61 -80 -81 -200 -48 -296 9 -27 37 -69 64 -99 l48 -52 51 49 c96 94 121
223 68 340 -24 52 -28 56 -47 46 -24 -13 -24 -8 0 -61 38 -84 22 -200 -35
-267 -30 -33 -34 -35 -50 -22 -31 26 -65 111 -65 164 0 71 18 121 63 172 56
64 107 87 190 88 54 1 71 5 78 19 8 13 6 19 -8 25 -35 14 -137 6 -185 -15 -38
-18 -49 -19 -65 -8 -18 12 -64 28 -115 39 -25 6 -28 3 -28 -19z"/>
<path d="M456 554 c-63 -65 -89 -136 -84 -229 5 -73 37 -155 61 -155 30 0 35
22 15 56 -32 54 -35 148 -8 211 12 28 34 63 50 78 l28 26 21 -30 c36 -51 51
-98 51 -163 0 -77 -26 -134 -85 -186 -51 -45 -108 -64 -177 -61 -39 2 -52 -1
-60 -14 -17 -32 1 -40 86 -35 49 3 94 11 113 21 31 16 34 16 72 -4 23 -11 59
-23 81 -26 38 -5 40 -4 40 21 0 19 -5 26 -20 26 -11 0 -37 7 -56 15 l-35 15
25 33 c72 94 92 224 49 318 -23 51 -88 129 -108 129 -7 0 -34 -21 -59 -46z"/>
<path d="M904 445 c-4 -9 -2 -21 4 -27 15 -15 44 -1 40 19 -4 23 -36 29 -44 8z"/>
<path d="M1100 421 c0 -39 0 -40 -33 -34 -48 7 -82 -23 -82 -75 0 -26 7 -48
19 -61 21 -23 65 -28 84 -9 9 9 12 9 12 0 0 -7 11 -12 25 -12 l25 0 0 115 0
115 -25 0 c-22 0 -25 -4 -25 -39z m-5 -91 c9 -29 -3 -60 -24 -60 -35 0 -54 43
-29 68 18 18 46 14 53 -8z"/>
<path d="M720 431 c0 -14 8 -21 26 -23 26 -3 26 -4 28 -88 1 -80 2 -85 24 -88
21 -3 22 -1 22 87 l0 91 30 0 c23 0 30 4 30 20 0 18 -7 20 -80 20 -72 0 -80
-2 -80 -19z"/>
<path d="M1360 339 l0 -111 66 4 c55 3 70 8 85 27 24 30 24 46 -2 72 -19 19
-19 22 -5 38 40 44 1 81 -86 81 l-58 0 0 -111z m94 75 c22 -9 20 -31 -4 -44
-26 -14 -40 -5 -40 26 0 24 13 30 44 18z m15 -98 c15 -18 5 -43 -21 -50 -30
-7 -38 0 -38 35 0 24 4 29 24 29 13 0 29 -6 35 -14z"/>
<path d="M1560 339 l0 -111 65 4 c42 2 71 10 81 20 22 21 21 68 -1 84 -16 12
-16 14 -1 36 20 29 20 34 -4 58 -16 16 -33 20 -80 20 l-60 0 0 -111z m100 66
c15 -18 7 -29 -27 -40 -20 -6 -23 -3 -23 24 0 24 4 31 19 31 10 0 24 -7 31
-15z m9 -99 c2 -11 -5 -26 -15 -33 -31 -22 -44 -16 -44 23 0 33 2 35 27 32 18
-2 29 -10 32 -22z"/>
<path d="M492 423 c4 -21 33 -25 33 -3 0 8 -8 16 -18 18 -14 3 -18 -1 -15 -15z"/>
<path d="M900 310 c0 -79 0 -80 25 -80 25 0 25 1 25 80 0 79 0 80 -25 80 -25
0 -25 -1 -25 -80z"/>
<path d="M1201 319 c35 -86 35 -93 8 -113 -23 -16 -20 -46 4 -46 29 0 66 55
97 143 10 29 21 60 25 70 7 16 3 18 -21 15 -26 -3 -30 -8 -38 -50 -5 -27 -12
-48 -16 -48 -3 0 -12 23 -19 50 -12 45 -16 50 -41 50 l-29 0 30 -71z"/>
<path d="M157 294 c-9 -9 4 -34 18 -34 14 0 27 25 18 34 -4 3 -12 6 -18 6 -6
0 -14 -3 -18 -6z"/>
</g>
</svg>
